<svg width="14" height="16" fill="none" xmlns="http://www.w3.org/2000/svg"><path d="M10.52 0c.5.14.72.49.81.97.08.4.19.79.29 1.18l.74 3a1.1 1.1 0 0 1-.19.99.3.3 0 0 0 .02.4c.06.1.14.18.21.25a2.4 2.4 0 0 1 .65 1.72v6.05c0 .12 0 .25-.02.37A1.19 1.19 0 0 1 11.86 16h-3a1.2 1.2 0 0 1-1.18-1.11 6.3 6.3 0 0 1-.02-.46V8.6c0-.72.2-1.35.72-1.87l.07-.08c.23-.26.23-.3.03-.59a.96.96 0 0 1-.15-.77L9.45.73a.93.93 0 0 1 .68-.7c.02 0 .04-.02.05-.03h.34Zm1.73 8.02a5.9 5.9 0 0 0-.3-.53 5.09 5.09 0 0 0-.35-.42c-.36-.42-.39-.93-.06-1.39a.38.38 0 0 0 .06-.33l-.68-2.77-.4-1.6c-.02-.07-.1-.17-.16-.19-.12-.02-.15.1-.18.2v.03L9.11 5.29a.49.49 0 0 0 .09.45 1.02 1.02 0 0 1 0 1.2c-.13.17-.27.31-.4.47-.15.17-.26.38-.31.6l3.75.01ZM1.4 4.65v-1H.51c-.33 0-.44-.1-.44-.44v-1.1c0-.3.12-.41.4-.41h5.44c.3 0 .42.12.42.41v1.11c0 .32-.12.43-.44.43h-.88v.94c0 .03.07.08.1.1.67.2 1.1.65 1.25 1.33.04.16.05.32.05.48v8.54c0 .62-.34.95-.96.95H.96c-.62 0-.96-.33-.96-.95V6.48c0-.78.34-1.37 1.06-1.7.1-.06.22-.09.33-.13ZM.8 7.58h4.83c0-.42.02-.83 0-1.24-.04-.56-.4-.9-.96-.94-.28-.02-.43-.18-.44-.46V3.67H2.18v1.18c0 .39-.11.52-.51.56-.43.04-.82.36-.86.78-.04.46 0 .92 0 1.4Z" fill="#fff"/></svg>