<svg width="17" height="16" fill="#fff" xmlns="http://www.w3.org/2000/svg"><path d="M10.97 0h.64l.29.05c2.06.3 3.8 1.9 4.23 3.9.3 1.4 0 2.66-1.04 3.7a2086.6 2086.6 0 0 1-7.34 7.23A3.84 3.84 0 0 1 4.94 16c-.94 0-1.86-.29-2.63-.82A5 5 0 0 1 .1 12l-.1-.55v-.62a.73.73 0 0 0 .03-.11c.07-.89.46-1.73 1.11-2.35l7.34-7.24C8.95.66 9.5.32 10.15.16c.27-.07.55-.1.82-.16ZM9.94 11.18 4.89 6.2l-.1.1-2.82 2.78c-.75.73-1 1.62-.8 2.62a3.85 3.85 0 0 0 2.56 2.98c1.26.47 2.42.28 3.4-.72.88-.9 1.8-1.78 2.7-2.67l.11-.11Z"/></svg>