<svg width="13" height="16" fill="#fff" xmlns="http://www.w3.org/2000/svg"><path d="m4.97.96.05-.02h1.7c.06.01.12.04.16.08l.76.75c.09.08.2.14.32.17.2.03.37-.08.46-.26.1-.18.06-.39-.1-.55L7.4.2A.65.65 0 0 0 6.9 0H2.97a.46.46 0 0 0-.45.4.45.45 0 0 0 .28.5c.08.03.16.04.24.04h.97V2h-.48c-.32 0-.5.18-.51.51v1.49h2.94V2.54c0-.34-.19-.53-.52-.53h-.47V.96Zm5.1 5.4h-.02v.75a1.47 1.47 0 0 0 2.88.3 1.6 1.6 0 0 0-.46-1.62l-2-2-.63-.63a.45.45 0 0 0-.5-.1.44.44 0 0 0-.3.4c0 .17.08.3.2.41.37.4.64.86.73 1.4.06.36.07.73.1 1.09Z"/><path d="M1.75 16a2.27 2.27 0 0 1-.96-.4c-.5-.39-.78-.9-.78-1.54V7.55c0-.14.06-.28.15-.4l2-2.11c.06-.05.12-.07.18-.08h4.3c.07 0 .13.04.18.09l2 2.1a.56.56 0 0 1 .15.4v6.48c0 .98-.68 1.77-1.65 1.94a.4.4 0 0 0-.07.03h-5.5Zm3.21-5.01.17-.01h.36c.27-.01.47-.2.47-.46a.47.47 0 0 0-.46-.48h-.54v-.5c0-.29-.2-.5-.47-.5-.27 0-.47.2-.47.51v.5h-.5c-.3 0-.5.19-.5.46s.2.46.5.47h.5v.53c0 .27.2.47.46.47s.46-.19.48-.46V11ZM4.97.96V2h.47c.33 0 .52.2.52.53V4H3.02V2.52c0-.32.19-.5.51-.51h.48V.94h-.97A.73.73 0 0 1 2.8.9a.45.45 0 0 1-.28-.5.46.46 0 0 1 .45-.4H6.9a.65.65 0 0 1 .5.21l.92.92c.16.17.2.37.1.56-.08.17-.27.29-.46.25a.7.7 0 0 1-.32-.17l-.76-.74a.26.26 0 0 0-.16-.08H4.97ZM10.07 6.36c-.03-.36-.04-.73-.1-1.09-.1-.54-.36-1-.74-1.4-.11-.12-.2-.24-.19-.41.02-.2.11-.34.3-.4a.45.45 0 0 1 .5.1l.63.62 2 2c.45.45.62 1 .46 1.62a1.47 1.47 0 0 1-2.88-.3v-.74h.02Z"/></svg>
