<svg width="16" height="16" fill="#fff" xmlns="http://www.w3.org/2000/svg"><path d="M11.11 13.32a2.63 2.63 0 1 1 .04-5.26 2.63 2.63 0 0 1-.04 5.26ZM4.85 8.84a2.63 2.63 0 1 1 .02-5.25 2.63 2.63 0 0 1-.02 5.25ZM5.32 1.68a.84.84 0 0 1-.85-.83.84.84 0 0 1 1.14-.8.84.84 0 0 1-.29 1.63ZM10.62 3.08a.83.83 0 0 1-1.42.6.84.84 0 0 1-.25-.6.85.85 0 0 1 .85-.84.84.84 0 0 1 .82.84ZM2.19 16a.82.82 0 0 1-.79-1.14.85.85 0 0 1 .78-.53.85.85 0 0 1 .83.83.83.83 0 0 1-.82.84ZM8 16a.83.83 0 0 1-.84-.83.86.86 0 0 1 .85-.84.85.85 0 0 1 .58 1.44.82.82 0 0 1-.6.23ZM.82 11.08a.83.83 0 0 1-.82-.84.84.84 0 0 1 .83-.84.86.86 0 0 1 .84.86.84.84 0 0 1-.85.82ZM5.31 12.42A.83.83 0 0 1 4.72 11a.85.85 0 0 1 .6-.25.85.85 0 0 1 .76 1.16.83.83 0 0 1-.77.5ZM15.1 15.17a.82.82 0 0 1-.82.83.83.83 0 0 1-.6-1.43.86.86 0 0 1 .6-.24.84.84 0 0 1 .82.84Z"/></svg>
