<svg width="17" height="16" fill="#fff" xmlns="http://www.w3.org/2000/svg"><path d="M4.44 16c-.14-.11-.3-.21-.43-.34L.24 11.89a.98.98 0 0 1-.21-.35.38.38 0 0 1 .1-.43L1.9 9.6c0-.01.02-.01 0 0l4.53 4.51-.5.59-.93 1.06c-.08.1-.2.16-.3.24h-.25ZM16 .78l-.72 1.08L14.14.73l1.1-.73.77.75v.03ZM7.22 13.19l-4.4-4.4 6.65-5.77 3.51 3.51-5.76 6.66Zm0-5.22-.56.56c-.05.05-.1.1-.14.17a.57.57 0 0 0 .12.73.57.57 0 0 0 .77-.02c.2-.2.4-.4.6-.63l.55.56a1 1 0 0 0 .2.16.57.57 0 0 0 .72-.15.57.57 0 0 0-.03-.76L8.85 8a.4.4 0 0 1 .02-.05l.48-.47.12-.14a.58.58 0 0 0-.42-.95.57.57 0 0 0-.4.16l-.62.64c-.2-.22-.38-.42-.58-.6a.8.8 0 0 0-.35-.18.54.54 0 0 0-.6.3.56.56 0 0 0 .1.66c.2.2.4.4.63.6ZM12.3.58l3.12 3.13-1.64 1.9-3.39-3.39L12.3.58Z"/></svg>
