<svg width="16" height="16" fill="#fff" xmlns="http://www.w3.org/2000/svg"><path d="M16 3.1c-.2.3-.4.31-.65.05l-.31-.32-1.76 1.76c.04.01.08.04.12.07.32.3.64.62.95.94.56.59.33 1.49-.43 1.7a.92.92 0 0 1-.86-.18c-.19-.15-.35-.33-.53-.5l-.14.13-6.38 6.39a.6.6 0 0 1-.52.19 3.81 3.81 0 0 1-1.84-.57.76.76 0 0 1-.1.15A1356.24 1356.24 0 0 1 .5 15.95a.32.32 0 0 1-.4-.05.32.32 0 0 1-.05-.4 1 1 0 0 1 .14-.16l2.9-2.9.14-.11c-.23-.36-.4-.76-.47-1.17l-.1-.76c-.01-.15.07-.27.17-.37L4.5 8.36l4.74-4.74.18-.15-.44-.4c-.39-.41-.42-.96-.08-1.38.34-.4.98-.49 1.37-.14.36.32.68.66 1.02 1l.14.16L13.18.97l-.33-.32c-.26-.26-.24-.44.06-.65h.18l.3.26c.8.78 1.57 1.56 2.35 2.34.1.1.17.2.26.3v.2ZM7.84 6l.06.03c.51.1 1.03.2 1.54.33.63.17 1.27.3 1.93.33.06 0 .13 0 .16-.03l.5-.5L9.86 4 7.84 6.01Zm2.14 2.18-.66-.66c-.03-.02-.05-.06-.09-.08-.15-.13-.33-.13-.46 0a.33.33 0 0 0 0 .46c.24.26.5.5.76.75l.45-.47Zm-3.34 3.36c-.25-.26-.5-.53-.76-.78a.32.32 0 0 0-.44 0c-.12.12-.15.31-.03.44.26.27.53.52.78.76l.45-.42Zm1.67-1.7c-.13-.13-.26-.27-.41-.4-.15-.13-.34-.13-.46 0a.32.32 0 0 0-.01.45c.13.16.28.29.42.43l.46-.48Z"/></svg>
