<svg width="15" height="16" fill="#fff" xmlns="http://www.w3.org/2000/svg"><path d="M12.7 0c.14.07.3.13.42.21.2.14.3.34.34.58.3 1.64.58 3.3.87 4.94.12.67.25 1.34.35 2.02a.92.92 0 0 1-.76 1.07l-4.67.82-2.2.4c-.36.06-.58-.1-.64-.45l-.1-.58c-.06-.32-.29-.47-.6-.41l-1.78.3c-.3.06-.53-.1-.58-.4l-.1-.6c-.07-.34-.3-.5-.63-.43l-1.28.22c-.3.06-.54-.1-.6-.39L.02 3.13a.91.91 0 0 1 .75-1.06c.88-.17 1.77-.32 2.66-.48A152875.35 152875.35 0 0 1 12.36 0h.35ZM5.95 15.34c0-.08.02-.17.06-.25.04-.08.1-.15.17-.2.07-.07.15-.11.24-.15a.83.83 0 0 1 .8.15c.08.06.13.14.17.21.03.08.05.17.05.25 0 .18-.08.34-.22.46a.8.8 0 0 1-.81.14.76.76 0 0 1-.24-.15.65.65 0 0 1-.16-.2.58.58 0 0 1-.06-.26ZM3.16 10.6a.73.73 0 0 1 .75-.74.75.75 0 0 1 .74.75.76.76 0 0 1-.76.74.75.75 0 0 1-.73-.76ZM2.5 12.28c.18 0 .35.07.47.21a.81.81 0 0 1 0 1.05.62.62 0 0 1-.46.23.58.58 0 0 1-.25-.06.65.65 0 0 1-.2-.16.76.76 0 0 1-.15-.24.84.84 0 0 1-.05-.29c0-.1.01-.2.05-.28.03-.1.08-.17.14-.24a.64.64 0 0 1 .2-.17.57.57 0 0 1 .26-.05ZM1.12 14.7c.1 0 .2.01.28.05.1.03.17.08.24.14.07.06.13.13.16.21.04.08.06.17.06.25 0 .17-.08.34-.22.46a.8.8 0 0 1-.81.14.76.76 0 0 1-.24-.14.65.65 0 0 1-.16-.21.58.58 0 0 1 0-.5c.04-.08.1-.15.16-.21.07-.07.15-.11.24-.14a.83.83 0 0 1 .29-.05ZM3.16 15.35a.64.64 0 0 1 .21-.46.82.82 0 0 1 .53-.2c.2 0 .39.07.53.2.14.12.22.28.22.46 0 .17-.08.33-.22.46a.8.8 0 0 1-.8.14.76.76 0 0 1-.25-.14.65.65 0 0 1-.16-.21.58.58 0 0 1-.06-.25ZM5.3 12.28c.1 0 .18.02.26.06.08.04.15.1.2.16.07.07.11.15.15.24.03.1.04.2.04.29a.8.8 0 0 1-.2.52.62.62 0 0 1-.46.22.62.62 0 0 1-.45-.23.8.8 0 0 1-.19-.53c0-.1.02-.19.05-.28a.75.75 0 0 1 .14-.24.64.64 0 0 1 .22-.16.57.57 0 0 1 .25-.05Z"/></svg>
