<svg width="8" height="16" fill="#ffffff" xmlns="http://www.w3.org/2000/svg"><path d="M3.66 16H.72c-.43 0-.65-.18-.7-.6l-.01-.32V9.8c0-.75.2-1.42.8-1.92.08-.07.18-.1.28-.1h5.19c.1 0 .2.03.27.1.52.43.75 1.01.78 1.68V15.26c0 .53-.22.74-.74.74H3.66Zm.62-4.96v-.58c0-.36-.27-.64-.61-.64-.34.01-.59.28-.6.64v.58h-.62c-.33.01-.6.28-.6.6 0 .15.06.3.17.4.11.12.26.19.42.19h.64v.58c0 .35.28.64.6.64.34 0 .6-.27.6-.64v-.58h.62c.34-.01.62-.3.62-.6 0-.33-.28-.58-.63-.59h-.6ZM1.08 5.82h-.3c-.35-.02-.56-.25-.56-.6 0-.34.23-.56.57-.57.44-.01.44-.01.54-.43L2.28.5c.09-.35.27-.5.64-.5h1.66c.42 0 .61.15.72.56a1425.13 1425.13 0 0 1 1.03 4.06h.45c.33.01.55.25.55.58 0 .34-.21.58-.54.6h-.31v.6a.8.8 0 0 1-.12.01l-5.11.03c-.13 0-.18-.03-.17-.16v-.46Z"/></svg>
