<svg width="14" height="16" fill="none" xmlns="http://www.w3.org/2000/svg"><g clip-path="url(#a)" fill="#fff"><path d="M13.15 0v2.8l-.15.01h-1.2c-.65 0-1.05-.27-1.39-.93H6.58v.92H1.9A2.38 2.38 0 0 1 3.83.03L3.95 0h2.63v.93h3.84c.14-.35.37-.63.72-.8l.38-.13h1.63ZM3.75 13.18h.94V6.56h2.29c.87 0 1.47.6 1.47 1.48v6.48c0 .88-.6 1.48-1.48 1.48h-5.5A1.4 1.4 0 0 1 0 14.53v-6.5c0-.86.6-1.47 1.47-1.47h2.28v6.62ZM.95 3.76H7.5v1.88H.95V3.76Z"/></g><defs><clipPath id="a"><path fill="#fff" d="M0 0h13.15v16H0z"/></clipPath></defs></svg>