<svg width="15" height="16" fill="#fff" xmlns="http://www.w3.org/2000/svg"><path d="M12.82 7.58V2.55c0-.37-.1-.48-.49-.48H7.76c-.36 0-.47.11-.47.46v5.05c-.85.09-1.58-.08-2.16-.74-.25-.28-.5-.56-.76-.82a.5.5 0 0 0-.3-.14c-.4-.02-.8 0-1.2 0-.29 0-.4-.13-.4-.43v-3.3c0-.3.12-.42.41-.42h1.17a.38.38 0 0 0 .33-.14c.24-.29.5-.56.75-.84A2.2 2.2 0 0 1 6.85 0h6.02c.82 0 1.33.51 1.33 1.33v5c0 .78-.63 1.34-1.38 1.25ZM0 13.58h3.82c-.05.6.08 1.13.61 1.49.27.18.58.26.9.23.79-.08 1.18-.6 1.26-1.72h7.6c.31 0 .33.02.33.31v1.38c0 .3-.06.34-.35.26-1-.26-2-.54-3.02-.76a11.07 11.07 0 0 0-2.95-.14.22.22 0 0 0-.07.05c-.44.78-1.17 1.08-2 1.2-1.05.15-2.1.2-3.14-.1a5.47 5.47 0 0 1-2.9-2 1.13 1.13 0 0 1-.09-.2Z"/><path d="M12.11 7.59H8v-4.8h4.11v4.8ZM3.82 9.44c-.03.58-.3 1.03-.86 1.29-.53.24-1.01.12-1.43-.26-.44-.4-.59-.91-.4-1.49A4.96 4.96 0 0 1 2.3 7.2a.31.31 0 0 1 .37.08 5.13 5.13 0 0 1 1.14 1.97l.01.2ZM4.48 12.88H.22c.29-.45.67-.67 1.17-.68.6-.02 1.2 0 1.81 0h3.34c.52 0 .92.21 1.23.68H5.89v.96c0 .46-.29.77-.7.77-.4 0-.68-.32-.68-.76v-.9a.33.33 0 0 0-.03-.07Z"/></svg>
