<svg width="12" height="16" viewBox="0 0 12 16" fill="none" xmlns="http://www.w3.org/2000/svg">
<path d="M8.01057 5.01439C8.13238 5.12624 8.26079 5.26233 8.40715 5.37465C8.71403 5.60768 9.03413 5.82812 9.34243 6.06115C9.89151 6.4764 10.172 7.03007 10.1795 7.71284C10.1847 8.2255 10.1795 8.7349 10.1795 9.24569L10.1323 9.28671C10.0053 9.14689 9.88537 8.99962 9.74987 8.86726C9.59673 8.71416 9.43349 8.57123 9.26123 8.43942C8.80232 8.0992 8.15032 8.07823 7.71549 8.43942C6.59608 9.365 5.65607 10.4337 5.15232 11.8164C4.59379 13.3493 4.97574 14.8272 6.19996 15.9177C6.21648 15.9326 6.23065 15.9499 6.2637 15.9848C6.19524 15.9904 6.14614 15.9983 6.09751 15.9983C4.77225 15.9983 3.447 16.0021 2.12174 15.9983C0.894215 15.9946 0.000472126 15.1049 0 13.8876C0 11.8472 0 9.80682 0 7.76644C0 7.03442 0.29792 6.45217 0.893743 6.01967C1.19716 5.79969 1.50027 5.57878 1.80306 5.35694C1.86916 5.31034 1.95602 5.26653 1.98907 5.20035C2.10569 4.96732 2.29454 4.96732 2.51125 5.00647C2.59311 5.01683 2.67579 5.01948 2.75817 5.01439H8.01198H8.01057ZM5.65513 8.9325C5.85295 8.9325 6.03283 8.93903 6.21413 8.9325C6.54981 8.91852 6.78964 8.67664 6.78634 8.36718C6.78303 8.05772 6.53659 7.82609 6.20138 7.8177C6.02622 7.81444 5.85059 7.8177 5.65654 7.8177C5.65654 7.63874 5.65654 7.47748 5.65654 7.3167C5.65654 6.94758 5.42379 6.69964 5.08528 6.70244C4.75479 6.70244 4.52816 6.94898 4.5258 7.30831C4.5258 7.47376 4.5258 7.63921 4.5258 7.81584C4.33412 7.81584 4.17029 7.81258 4.00646 7.81584C3.92456 7.81539 3.84306 7.82718 3.76473 7.85079C3.64439 7.89297 3.54241 7.97472 3.47588 8.08231C3.40934 8.18991 3.38231 8.31681 3.39931 8.44175C3.43613 8.71393 3.66134 8.91433 3.95925 8.92784C4.14433 8.9367 4.32987 8.92784 4.5258 8.92784C4.5258 9.12265 4.52344 9.29043 4.5258 9.45821C4.531 9.79331 4.77934 10.0473 5.09566 10.0436C5.41199 10.0398 5.64993 9.79331 5.65607 9.46614C5.65796 9.29789 5.65513 9.12498 5.65513 8.9325Z" fill="white"/>
<path d="M4.9817 4.15535C4.19317 4.15535 3.40417 4.15535 2.61564 4.15535C1.82711 4.15535 1.26895 3.63508 1.25443 2.86352C1.2446 2.33781 1.24366 1.81119 1.25443 1.28503C1.27035 0.522084 1.81633 0.00453592 2.60626 0.00272155C4.1955 -0.000907184 5.78474 -0.000907184 7.37398 0.00272155C8.14565 0.00498951 8.69257 0.513466 8.71458 1.25962C8.73097 1.80802 8.7319 2.35777 8.71458 2.90616C8.69023 3.65096 8.13676 4.15354 7.36602 4.1549C6.57093 4.15671 5.77632 4.15535 4.9817 4.15535Z" fill="white"/>
<path d="M8.59664 16C6.73251 16 5.40779 14.4774 5.6359 12.8171C5.75977 11.9132 6.17767 11.1424 6.7442 10.453C7.13778 9.97476 7.58558 9.54073 8.02918 9.10391C8.25214 8.88387 8.54335 8.88201 8.77473 9.08018C9.67174 9.85567 10.4491 10.7288 10.9203 11.8318C11.3409 12.8139 11.3498 13.7857 10.7553 14.7086C10.2121 15.5502 9.41979 15.9753 8.59664 16Z" fill="white"/>
</svg>
