<svg width="17" height="16" fill="#fff" xmlns="http://www.w3.org/2000/svg"><path d="m0 10.48.16-.85c.18-.7.5-1.37.97-1.93l.07-.07 7.36 7.21c-.2.14-.41.29-.63.42a5.15 5.15 0 0 1-2.32.74h-.76l-.14-.03a5.18 5.18 0 0 1-4.55-3.84c-.07-.28-.1-.56-.16-.85v-.8ZM16.19 5.5l-.16.86c-.25 1-.8 1.89-1.58 2.57a5.28 5.28 0 0 1-2.8 1.26l-.34.04a6.01 6.01 0 0 0-1.45-3.37l5.13-5a4.84 4.84 0 0 1 1.17 2.75c0 .05.01.1.03.14v.74ZM9.21 14.14 1.86 6.79a5.2 5.2 0 0 1 6.9.2 5.21 5.21 0 0 1 .45 7.15ZM14.33 1.17 9.2 6.14a6.27 6.27 0 0 0-3.44-1.41A5 5 0 0 1 8.69.51a5.36 5.36 0 0 1 5.64.66Z"/></svg>
